<svg width="51" height="51" viewBox="0 0 51 51" fill="none" xmlns="http://www.w3.org/2000/svg">
<path d="M11.5881 4.17643C18.6253 2.09133 25.6887 7.36146 25.6939 14.7011L25.7016 25.6653V25.7016L25.6835 26.7842C25.6734 26.1833 25.1836 25.7013 24.5826 25.7009L14.7011 25.6939C7.36144 25.6887 2.0913 18.6254 4.1764 11.5881C5.23298 8.02218 8.02215 5.23301 11.5881 4.17643Z" fill="#FFA41B"/>
<path d="M39.4119 46.8236C32.3747 48.9087 25.3113 43.6386 25.3061 36.299L25.2984 25.3347L25.2984 25.2984L25.3165 24.2159C25.3266 24.8168 25.8164 25.2988 26.4174 25.2992L36.2989 25.3062C43.6386 25.3114 48.9087 32.3747 46.8236 39.4119C45.767 42.9779 42.9779 45.7671 39.4119 46.8236Z" fill="#FFA41B"/>
<path d="M46.8236 11.5881C48.9087 18.6254 43.6386 25.6887 36.2989 25.6939L25.3347 25.7016L25.2984 25.7016L24.2158 25.6835C24.8167 25.6734 25.2987 25.1836 25.2992 24.5826L25.3061 14.7011C25.3113 7.36146 32.3747 2.09133 39.4119 4.17643C42.9779 5.23301 45.767 8.02218 46.8236 11.5881Z" fill="#FFA41B"/>
<path d="M4.1764 39.4119C2.09129 32.3747 7.36143 25.3114 14.7011 25.3062L25.6653 25.2984L25.7016 25.2984L26.7842 25.3166C26.1833 25.3267 25.7013 25.8164 25.7008 26.4175L25.6939 36.299C25.6887 43.6386 18.6253 48.9087 11.5881 46.8236C8.02215 45.7671 5.23298 42.9779 4.1764 39.4119Z" fill="#FFA41B"/>
</svg>
