<svg width="45" height="45" viewBox="0 0 45 45" fill="none" xmlns="http://www.w3.org/2000/svg">
<path d="M17.7974 3.30275C20.1438 0.157951 24.8562 0.157951 27.2026 3.30275C28.4899 5.02822 30.6189 5.91006 32.7493 5.6003C36.6322 5.03573 39.9643 8.36786 39.3997 12.2507C39.09 14.3811 39.9718 16.5101 41.6973 17.7975C44.8421 20.1439 44.8421 24.8562 41.6973 27.2026C39.9718 28.49 39.09 30.6189 39.3997 32.7494C39.9643 36.6322 36.6322 39.9643 32.7493 39.3998C30.6189 39.09 28.4899 39.9718 27.2025 41.6973C24.8562 44.8421 20.1438 44.8421 17.7975 41.6973C16.5101 39.9718 14.3811 39.09 12.2507 39.3998C8.36782 39.9643 5.0357 36.6322 5.60027 32.7494C5.91003 30.6189 5.02819 28.49 3.30272 27.2026C0.15792 24.8562 0.15792 20.1439 3.30272 17.7975C5.02819 16.5101 5.91003 14.3811 5.60027 12.2507C5.0357 8.36786 8.36783 5.03573 12.2507 5.6003C14.3811 5.91006 16.5101 5.02822 17.7974 3.30275Z" fill="#3B82F6"/>
</svg>
