<svg width="51" height="51" viewBox="0 0 51 51" fill="none" xmlns="http://www.w3.org/2000/svg">
<path d="M22.5052 1.00003C22.5052 0.447746 22.9529 3.05176e-05 23.5052 3.05176e-05H27.4947C28.047 3.05176e-05 28.4947 0.447746 28.4947 1.00003V10.5711L32.2182 1.6833C32.4315 1.17401 33.0173 0.934036 33.5266 1.14725L37.1435 2.6613C37.6505 2.87353 37.8912 3.45513 37.6824 3.96356L34.0284 12.8632L40.778 6.04289C41.1679 5.64888 41.8039 5.64723 42.1958 6.03919L44.9727 8.81608C45.36 9.20337 45.3637 9.83016 44.981 10.222L38.2636 17.0985L47.034 13.4504C47.5431 13.2386 48.1276 13.4789 48.3405 13.9876L49.8516 17.5974C50.0653 18.1078 49.8237 18.6948 49.3127 18.907L40.3433 22.6321H50C50.5523 22.6321 51 23.0798 51 23.6321V27.4373C51 27.9819 50.5641 28.4264 50.0195 28.4371L40.5558 28.6217L49.3082 32.2217C49.8212 32.4328 50.0645 33.021 49.8503 33.5327L48.3404 37.1397C48.1275 37.6482 47.5432 37.8885 47.0342 37.677L38.1866 34L44.9645 40.778C45.3551 41.1685 45.3551 41.8017 44.9645 42.1922L42.1922 44.9646C41.8017 45.3551 41.1685 45.3551 40.778 44.9646L33.8731 38.0597L37.556 47.0367C37.7645 47.545 37.5238 48.1265 37.0169 48.3386L33.4015 49.8521C32.8915 50.0656 32.305 49.8247 32.0923 49.3144L28.4947 40.6827V50C28.4947 50.5523 28.047 51 27.4947 51H23.5821C23.0298 51 22.5821 50.5523 22.5821 50V40.2164L18.776 49.2126C18.5644 49.7127 17.9924 49.9526 17.4874 49.7529L13.8866 48.3294C13.3666 48.1238 13.1162 47.5319 13.3308 47.0156L17 38.1866L10.222 44.9646C9.83151 45.3551 9.19834 45.3551 8.80782 44.9646L6.03546 42.1922C5.64494 41.8017 5.64494 41.1685 6.03546 40.778L12.9403 33.8732L3.96338 37.556C3.45499 37.7646 2.87356 37.5239 2.66138 37.017L1.15088 33.4086C0.936242 32.8958 1.18095 32.3064 1.69564 32.0965L10.403 28.5448H1C0.447715 28.5448 0 28.0971 0 27.5448V23.4671C0 22.9102 0.454918 22.4606 1.01176 22.4672L10.7835 22.5821L1.68459 18.7813C1.1747 18.5683 0.934218 17.9821 1.14759 17.4724L2.6596 13.8604C2.87247 13.3519 3.45673 13.1115 3.9658 13.3231L12.8134 17L6.03543 10.2221C5.64491 9.83154 5.64491 9.19837 6.03543 8.80785L8.80779 6.0355C9.19831 5.64497 9.83148 5.64497 10.222 6.0355L17.1268 12.9403L13.444 3.96341C13.2354 3.45502 13.4761 2.87359 13.983 2.66141L17.5913 1.15097C18.1041 0.936309 18.6935 1.18109 18.9034 1.69587L22.5052 10.5299V1.00003Z" fill="#F86F03"/>
</svg>
