<svg width="71" height="61" viewBox="0 0 71 61" fill="none" xmlns="http://www.w3.org/2000/svg">
<path d="M2 22.6909C9.12185 17.7473 20.7269 8.30041 24.4574 6.08201C28.5105 3.67177 30.9423 1.64523 32.1831 2.05235C37.0286 3.64229 21.4052 24.203 13.5927 36.5164C10.2589 41.7707 6.43358 47.3175 4.21265 50.7905C3.73371 51.5395 2.8437 52.0368 2.96778 52.3193C4.35336 55.474 12.4388 49.0291 20.1686 44.1727C24.1122 41.6951 27.0795 39.8647 29.1433 39.3122C30.1198 39.0508 30.9341 38.7597 31.3559 39.5781C34.273 45.2372 28.7504 50.9235 26.8231 55.6303C26.3503 56.7849 25.723 57.5703 25.9877 57.9941C27.8885 61.0371 33.9615 56.4902 38.515 53.4451C44.4416 50.3917 53.5073 46.5365 62.0477 42.2451C65.4019 40.6956 66.7667 40.4214 69 40.1389" stroke="white" stroke-width="4" stroke-linecap="round"/>
</svg>
