<svg width="51" height="51" viewBox="0 0 51 51" fill="none" xmlns="http://www.w3.org/2000/svg">
<path d="M25.4007 0.00657092C21.8292 0.323424 21.5316 11.2284 21.8292 16.6413C18.1585 12.5156 10.1624 4.89798 7.54332 7.4328C4.92424 9.96762 12.6029 18.0606 16.7696 21.7902C11.6108 21.1961 -0.23459 22.0872 0.00350804 25.6518C0.241606 29.2164 11.2801 29.4475 16.7696 29.1174C11.9084 32.979 5.15955 41.385 7.5433 43.5738C10.0235 45.8512 18.7207 37.9629 21.8292 34.2663C21.5316 40.9994 22.0276 51 25.4999 51C28.9722 51 29.5674 39.2171 29.0714 34.2663C33.1389 38.623 41.2739 46.2472 43.6549 43.3758C45.7075 40.9004 38.2977 32.55 34.4286 29.1174C40.0503 29.3814 51.2344 29.0184 50.9963 25.4538C50.7582 21.8892 39.8519 21.5261 34.4286 21.7902C38.5622 18.2916 45.9367 9.8092 43.6549 7.4328C40.6787 5.25444 32.246 12.8787 29.1706 16.6413C29.4021 10.9644 28.9722 -0.310282 25.4007 0.00657092Z" fill="#525FE1"/>
</svg>
